Coordinates
version=1
nRows=26
nColumns=24
inDegrees=yes

Units are S.I. units (second, meters, Newtons, ...)
Angles are in degrees.

endheader
time	pelvis_tilt	pelvis_list	pelvis_rotation	pelvis_tx	pelvis_ty	pelvis_tz	hip_flexion_r	hip_adduction_r	hip_rotation_r	knee_angle_r	ankle_angle_r	subtalar_angle_r	mtp_angle_r	hip_flexion_l	hip_adduction_l	hip_rotation_l	knee_angle_l	ankle_angle_l	subtalar_angle_l	mtp_angle_l	lumbar_extension	lumbar_bending	lumbar_rotation
      5.59000000	     -3.60192367	      3.30389268	     17.07675597	      0.96097481	      0.64195240	     -0.22054375	     28.53774728	     -9.91384159	     -0.02063630	    -10.20598470	     -7.46251842	    -27.51231958	      0.00000000	    -16.52484907	      1.86784024	     12.28212617	    -16.08336208	     20.14929098	     -0.13012941	      0.00000000	     -8.72492372	      0.97075106	     -8.34833643
      5.60000000	     -3.60883110	      2.64672398	     17.08950117	      0.97391187	      0.64109355	     -0.21893852	     29.16036807	     -8.82347637	      0.85853536	    -13.00175939	     -9.58483276	    -30.12223950	      0.00000000	    -16.56158578	      0.84034044	     11.85046595	    -17.46878085	     18.78124313	      0.08092080	      0.00000000	     -8.36460628	      1.59116578	     -8.02808349
      5.61000000	     -3.48639874	      1.87899205	     16.88227331	      0.98681668	      0.64072235	     -0.21711509	     29.67909314	     -7.43208697	      1.62455058	    -15.72081018	    -10.82419010	    -31.71676470	      0.00000000	    -16.53022157	     -0.21954378	     11.17338269	    -19.09486938	     16.94637394	      0.00640049	      0.00000000	     -8.16860648	      2.37749696	     -7.60365424
      5.62000000	     -3.34245014	      1.03222632	     16.57726942	      0.99961179	      0.64081839	     -0.21520536	     30.08725669	     -5.87528613	      2.20848082	    -18.21465122	    -10.81818064	    -32.11672130	      0.00000000	    -16.24803075	     -1.27575674	     10.30183071	    -21.06881218	     14.52690914	     -0.22257491	      0.00000000	     -8.02893390	      3.28650946	     -7.27820844
      5.63000000	     -3.17351325	      0.19663477	     16.10618499	      1.01230211	      0.64130336	     -0.21312217	     30.25381801	     -4.17546713	      3.01377191	    -20.30633691	    -10.50759701	    -32.66095309	      0.00000000	    -15.69762521	     -2.23706494	      9.10781460	    -23.46175973	     11.58421261	     -0.74606807	      0.00000000	     -8.00017068	      4.18514085	     -6.81932304
      5.64000000	     -2.95167588	     -0.47596789	     15.61932760	      1.02483808	      0.64226191	     -0.21104234	     30.05114251	     -2.57631977	      3.88680384	    -21.95646093	     -9.91414736	    -33.43555407	      0.00000000	    -14.98203577	     -2.96547799	      8.06318737	    -26.12511818	      7.66452159	     -2.07402113	      0.00000000	     -8.14925614	      4.92390161	     -6.55925329
      5.65000000	     -2.80255219	     -1.04727632	     15.19786890	      1.03715103	      0.64353014	     -0.20900116	     29.60214196	     -1.11966740	      4.72124420	    -23.13140417	     -9.11406523	    -34.25782176	      0.00000000	    -13.83014188	     -3.56140594	      7.04238029	    -29.21652343	      3.05503428	     -3.66282316	      0.00000000	     -8.29629538	      5.51073027	     -6.43061743
      5.66000000	     -2.69754123	     -1.46747909	     14.84002206	      1.04916646	      0.64508220	     -0.20704527	     28.90653929	      0.13218522	      5.54148767	    -23.87010986	     -8.27981924	    -35.18124236	      0.00000000	    -12.31337425	     -3.96540336	      6.19765592	    -32.64087080	     -2.10205763	     -5.69854954	      0.00000000	     -8.49495479	      5.89246747	     -6.39152578
      5.67000000	     -2.65739526	     -1.78843907	     14.54871747	      1.06084506	      0.64683270	     -0.20519567	     28.04679624	      1.20383656	      6.31496473	    -24.22387272	     -7.41798648	    -36.06456315	      0.00000000	    -10.41921466	     -4.22474874	      5.54865781	    -36.34897573	     -7.29922536	     -8.00015799	      0.00000000	     -8.67644454	      6.12138931	     -6.36481766
      5.68000000	     -2.69267613	     -2.02967408	     14.30414927	      1.07207745	      0.64870386	     -0.20350110	     27.12645175	      2.08237088	      6.94339194	    -24.29628257	     -6.52045835	    -36.73905517	      0.00000000	     -8.16449912	     -4.32789259	      5.10520187	    -40.29535385	    -12.02009179	    -10.48335488	      0.00000000	     -8.85787377	      6.22761347	     -6.29560235
      5.69000000	     -2.79875305	     -2.22718587	     14.07529913	      1.08284963	      0.65064872	     -0.20196848	     26.20189189	      2.79660939	      7.36773504	    -24.15332627	     -5.54170850	    -37.03722901	      0.00000000	     -5.61447638	     -4.29214623	      4.81964575	    -44.37302135	    -15.79676621	    -13.03943935	      0.00000000	     -9.02901456	      6.25555301	     -6.13400718
      5.70000000	     -2.94868504	     -2.40360637	     13.83797192	      1.09318842	      0.65264841	     -0.20060829	     25.28744988	      3.37548902	      7.55138578	    -23.85586830	     -4.40670486	    -36.86936774	      0.00000000	     -2.87036880	     -4.13098207	      4.65209660	    -48.44577719	    -18.32324000	    -15.58314288	      0.00000000	     -9.20247253	      6.24998071	     -5.83360180
      5.71000000	     -3.11429807	     -2.54072047	     13.55292198	      1.10316591	      0.65471539	     -0.19938626	     24.36068223	      3.82423419	      7.50359349	    -23.42613666	     -2.98500651	    -36.13787057	      0.00000000	     -0.05302033	     -3.82498918	      4.55639453	    -52.34514973	    -19.49521251	    -17.96547546	      0.00000000	     -9.41183962	      6.19454641	     -5.42249161
      5.72000000	     -3.26643943	     -2.64228489	     13.22650794	      1.11287456	      0.65685672	     -0.19831094	     23.39086978	      4.14910404	      7.18142429	    -22.87895370	     -1.28612571	    -34.78750026	      0.00000000	      2.75921288	     -3.39639878	      4.52344173	    -55.95809826	    -19.23089768	    -19.77248375	      0.00000000	     -9.66415253	      6.10902462	     -4.85783170
      5.73000000	     -3.33610665	     -2.68048685	     12.83566714	      1.12244660	      0.65911008	     -0.19730899	     22.26317645	      4.38174893	      6.75490218	    -22.17431311	      0.34055676	    -33.30222480	      0.00000000	      5.43980584	     -2.86690565	      4.50350341	    -59.18054087	    -17.55526935	    -20.51898265	      0.00000000	    -10.02351393	      5.96875450	     -4.17810321
      5.74000000	     -3.39634119	     -2.65522032	     12.30469769	      1.13200010	      0.66139593	     -0.19629375	     21.00691699	      4.56869617	      6.50575233	    -21.24846076	      1.53604422	    -32.11027887	      0.00000000	      8.01682993	     -2.24498028	      4.40796783	    -61.90988619	    -15.14710902	    -20.55495132	      0.00000000	    -10.37446076	      5.73770232	     -3.31238408
      5.75000000	     -3.35136365	     -2.38076365	     11.85229916	      1.14144876	      0.66381464	     -0.19548240	     19.63339707	      4.41739189	      5.87238178	    -20.39509210	      3.43373356	    -29.96525759	      0.00000000	     10.37024899	     -1.32094688	      4.45863836	    -64.13004252	    -12.15260287	    -19.58294450	      0.00000000	    -10.87850442	      5.26417816	     -2.63919327
      5.76000000	     -3.43067934	     -2.11336116	     11.26429323	      1.15096116	      0.66600474	     -0.19454416	     18.30496296	      4.31577836	      5.64488694	    -19.36675771	      4.46886626	    -28.76232479	      0.00000000	     12.79066465	     -0.45554360	      4.34663412	    -65.90697854	     -8.87787504	    -17.72725123	      0.00000000	    -11.16280830	      4.73382348	     -1.84558708
      5.77000000	     -3.48524900	     -1.75548148	     10.60139141	      1.16051385	      0.66811674	     -0.19358972	     16.94141276	      4.13703133	      5.52044499	    -18.35440109	      5.58753500	    -27.39888477	      0.00000000	     15.07321422	      0.42860967	      4.12514982	    -67.18473070	     -5.77531728	    -15.53436238	      0.00000000	    -11.43775294	      4.09117358	     -1.02909648
      5.78000000	     -3.56577988	     -1.35757407	      9.87926586	      1.17010137	      0.67004026	     -0.19260082	     15.61340685	      3.93068881	      5.58134395	    -17.37142923	      6.57984090	    -26.19384016	      0.00000000	     17.28995599	      1.25633959	      3.78575889	    -67.99891628	     -3.00085614	    -13.34826799	      0.00000000	    -11.62331936	      3.37788737	     -0.20280810
      5.79000000	     -3.64738208	     -0.96119260	      9.11405895	      1.17970847	      0.67175715	     -0.19161228	     14.31876462	      3.72761934	      5.75027760	    -16.44022493	      7.49654557	    -25.12067133	      0.00000000	     19.41533599	      1.97419297	      3.35032709	    -68.36374055	     -0.58228469	    -11.46397020	      0.00000000	    -11.75537346	      2.66327818	      0.64907400
      5.80000000	     -3.71993925	     -0.57922590	      8.30561138	      1.18933033	      0.67325407	     -0.19062104	     13.04559106	      3.54018628	      6.05317875	    -15.55773709	      8.32281993	    -24.18079526	      0.00000000	     21.43206842	      2.55301476	      2.81199192	    -68.28710231	      1.45190405	    -10.10680343	      0.00000000	    -11.84502205	      1.96652710	      1.51118604
      5.81000000	     -3.77043013	     -0.23408895	      7.47641087	      1.19894645	      0.67452368	     -0.18963322	     11.79188161	      3.37709254	      6.39438715	    -14.73358585	      9.11955055	    -23.30300179	      0.00000000	     23.31942811	      2.96693641	      2.19723294	    -67.77377670	      3.14415204	     -9.40975989	      0.00000000	    -11.92208641	      1.31697173	      2.38052149
      5.82000000	     -3.79725823	      0.08481437	      6.62165342	      1.20854156	      0.67556574	     -0.18864133	     10.54942572	      3.22488243	      6.77345726	    -13.95710098	      9.88988929	    -22.43746035	      0.00000000	     25.05945325	      3.23039171	      1.51031363	    -66.82020782	      4.43265196	     -9.45798092	      0.00000000	    -11.99937074	      0.70145394	      3.21408638
      5.83000000	     -3.82245024	      0.35430586	      5.74449458	      1.21808860	      0.67633954	     -0.18764598	      9.33796159	      3.10554940	      7.23316260	    -13.20961654	     10.44178006	    -21.94082044	      0.00000000	     26.66553413	      3.33399297	      0.78477819	    -65.43349884	      5.36911347	    -10.22063856	      0.00000000	    -12.06220490	      0.15123045	      4.13163776
      5.84000000	     -3.82584512	      0.63674471	      4.90305483	      1.22758345	      0.67691483	     -0.18672610	      8.18673817	      2.91720157	      7.39294383	    -12.60678908	     11.38495894	    -20.83511439	      0.00000000	     28.07288637	      3.38565975	      0.07053448	    -63.55431481	      5.83871595	    -11.81462578	      0.00000000	    -12.15151673	     -0.38592109	      4.85574301
